M48
;Layer_Color=9474304
;FILE_FORMAT=2:3
INCH,LZ
;TYPE=PLATED
T1F00S00C0.012
T2F00S00C0.016
T3F00S00C0.020
T4F00S00C0.024
T5F00S00C0.035
T6F00S00C0.038
T7F00S00C0.039
T8F00S00C0.047
T9F00S00C0.051
T10F00S00C0.079
T11F00S00C0.098
%
T01
X02229Y01383
X0223Y01434
X02853Y01399
X02853Y01336
Y01267
X02852Y0147
Y01537
X01811Y01199
X01709Y01962
X01523Y01932
X01284Y01887
X01277Y02116
X01275Y02159
X01274Y02231
X01272Y02279
X01271Y02323
X01204Y0237
X0113Y023
Y0225
Y022
Y0215
Y021
X01086Y02049
X01184Y02047
X0118Y0215
Y022
X0123
X0118Y0225
X0108
Y022
X0103
X00986Y02237
X0098Y02333
X01046Y02371
X0108Y0215
X00987Y02136
X00987Y02048
X00784Y0186
X01493Y02226
X01536Y02336
X01619Y02271
X01756Y02463
X01711Y02547
Y0265
X01792Y02786
X01352Y02551
X02309Y02067
X02521Y01925
X02636Y02218
X02698Y02217
X02761Y02215
X02818Y02212
T02
X02939Y0122
X01704Y01288
X0165Y01256
X01494Y01188
X01648Y00912
X01645Y00755
X01204Y0145
X00511Y01353
X0036Y01502
X01297Y0178
X01426Y01743
X02006Y02054
X02136Y02026
X01123Y02371
X01125Y02555
X01008Y02592
X01218Y02819
X02357Y02563
X02262Y02468
X02939Y01586
X01231Y03145
T03
X00955Y03062
T04
X02538Y0017
X0254Y00419
X02416Y00421
X02506Y00897
X03064Y00909
X02961Y00735
X02029Y00768
X02024Y00683
X0181Y00937
X02118Y00261
X01133Y0061
X00948Y00692
X00991Y0117
X00692Y01071
X00727Y00343
X00462Y00344
X00516Y01191
X01552Y0198
T05
X02236Y00303
Y00803
X02773Y00751
X02673Y00451
X02773Y00251
X02136Y00503
X007Y00425
X008Y00225
Y00725
X00546
X00446Y00425
X00546Y00225
X00967Y02964
X01067
X01167
X01465Y02926
Y03026
T06
X00145Y01224
X00257Y01169
Y01714
X00145Y01769
Y02314
X00257Y02259
Y02804
T07
X0222Y01127
X02417
X02602
X02039Y01219
Y01407
X00257Y01387
Y01496
X00145Y01442
Y01333
X00257Y01278
Y0106
Y00951
Y00842
X00145Y00897
Y01006
Y01115
Y01551
Y0166
X00257Y01605
Y01823
Y01932
Y02041
Y0215
X00145Y02096
Y01987
Y01878
Y02205
Y02423
Y02532
Y02641
Y0275
X00257Y02695
Y02586
Y02477
Y02368
X0204Y02445
Y02634
Y02822
X02039Y01596
X0222Y01688
X02417
X02614
X02603Y02353
X02418
X02221
Y02914
X02418
X02615
T08
X02318Y01127
X02712
Y0135
Y01563
X03106Y01127
X03499
X03499Y01465
X02121Y01688
X02123Y02914
X02517
X02714Y02789
Y02576
Y02353
X03107
X03501
X03501Y02691
X03304Y02914
X0291
X0232Y02353
X02515Y01688
X02909
X03303
T09
X00729Y01447
X00829
X01029
X01358Y01445
X01558
X01658
X01758
X00629Y01447
Y01647
X00729
X00829
X01029
X01358Y01645
X01558
X01658
X01758
T10
X0109Y00218
X01256
X01422
Y00431
X01256
X0109
X01649Y00435
X01815
X01981
Y00222
X01815
X01649
T11
X00201Y00573
Y03073
M30
