G04*
G04 #@! TF.GenerationSoftware,Altium Limited,Altium Designer,19.1.6 (110)*
G04*
G04 Layer_Color=65535*
%FSLAX23Y23*%
%MOIN*%
G70*
G01*
G75*
%ADD10C,0.010*%
%ADD11C,0.020*%
%ADD12C,0.039*%
%ADD13C,0.004*%
%ADD14C,0.008*%
%ADD15C,0.010*%
%ADD16C,0.006*%
D10*
X2519Y1274D02*
G03*
X2519Y1274I-4J0D01*
G01*
X2521Y2500D02*
G03*
X2521Y2500I-4J0D01*
G01*
X3606Y1187D02*
X3606Y1187D01*
X2137D02*
Y1407D01*
Y1187D02*
X2283D01*
X2429D01*
Y1628D01*
X2137D02*
X2429D01*
X2137Y1407D02*
Y1628D01*
X2283Y1703D02*
X4842Y1703D01*
Y1703D02*
X4842Y1112D01*
X2283D02*
X4842Y1112D01*
X2283Y1112D02*
Y1187D01*
Y1628D02*
Y1703D01*
X3606Y1112D02*
Y1703D01*
X3607Y2413D02*
X3607Y2413D01*
X2139D02*
Y2634D01*
Y2413D02*
X2284D01*
X2430D01*
Y2854D01*
X2139D02*
X2430D01*
X2139Y2634D02*
Y2854D01*
X2284Y2929D02*
X4844Y2929D01*
Y2929D02*
X4844Y2338D01*
X2284D02*
X4844Y2338D01*
X2284Y2338D02*
Y2413D01*
Y2854D02*
Y2929D01*
X3607Y2338D02*
Y2929D01*
X1069Y1517D02*
Y1577D01*
X989D02*
X1069D01*
X989Y1517D02*
Y1577D01*
Y1517D02*
X1069D01*
X1029Y1497D02*
Y1517D01*
Y1577D02*
Y1597D01*
X1089D02*
X1129D01*
X1109Y1577D02*
Y1617D01*
X1089Y1487D02*
X1129D01*
X1318Y1515D02*
Y1575D01*
Y1515D02*
X1398D01*
Y1575D01*
X1318D02*
X1398D01*
X1358D02*
Y1595D01*
Y1495D02*
Y1515D01*
X1258Y1495D02*
X1298D01*
X1278Y1475D02*
Y1515D01*
X1258Y1605D02*
X1298D01*
X959Y3065D02*
Y3215D01*
Y3065D02*
X1160D01*
Y3215D01*
X959D02*
X1160D01*
D11*
X1290Y2541D02*
G03*
X1290Y2541I-8J0D01*
G01*
D12*
X963Y3282D02*
G03*
X963Y3282I-4J0D01*
G01*
D13*
X2286Y153D02*
Y953D01*
X2086D02*
X2286D01*
X2086Y153D02*
Y953D01*
Y153D02*
X2286D01*
X2823Y101D02*
Y901D01*
X2623D02*
X2823D01*
X2623Y101D02*
Y901D01*
Y101D02*
X2823D01*
X850Y75D02*
Y875D01*
X650D02*
X850D01*
X650Y75D02*
Y875D01*
Y75D02*
X850D01*
X596D02*
Y875D01*
X396D02*
X596D01*
X396Y75D02*
Y875D01*
Y75D02*
X596D01*
D14*
X1320Y2020D02*
Y2391D01*
X949D02*
X1320D01*
X949Y2020D02*
Y2391D01*
Y2020D02*
X1320D01*
X1463Y687D02*
X1857D01*
X1872Y702D01*
X1877Y707D02*
Y805D01*
X1857Y825D02*
X1872Y810D01*
X1463Y825D02*
X1857D01*
X1463Y687D02*
Y825D01*
X1867Y815D02*
X1877Y805D01*
X1867Y697D02*
X1877Y707D01*
X1464Y518D02*
X1858D01*
X1873Y533D01*
X1878Y538D02*
Y636D01*
X1858Y656D02*
X1873Y641D01*
X1464Y656D02*
X1858D01*
X1464Y518D02*
Y656D01*
X1868Y646D02*
X1878Y636D01*
X1868Y528D02*
X1878Y538D01*
X1054Y809D02*
Y1203D01*
X1039Y1218D02*
X1054Y1203D01*
X936Y1223D02*
X1034D01*
X916Y1203D02*
X931Y1218D01*
X916Y809D02*
Y1203D01*
Y809D02*
X1054D01*
X926Y1213D02*
X936Y1223D01*
X1034D02*
X1044Y1213D01*
X2466Y509D02*
X2476Y499D01*
X2358D02*
X2368Y509D01*
X2348Y95D02*
X2486D01*
X2348D02*
Y489D01*
X2363Y504D01*
X2368Y509D02*
X2466D01*
X2471Y504D02*
X2486Y489D01*
Y95D02*
Y489D01*
X3014Y514D02*
X3024Y504D01*
X2906D02*
X2916Y514D01*
X2896Y100D02*
X3034D01*
X2896D02*
Y494D01*
X2911Y509D01*
X2916Y514D02*
X3014D01*
X3019Y509D02*
X3034Y494D01*
Y100D02*
Y494D01*
X1859Y1015D02*
X1869Y1025D01*
X1859Y1133D02*
X1869Y1123D01*
X1455Y1005D02*
Y1143D01*
X1849D01*
X1864Y1128D01*
X1869Y1025D02*
Y1123D01*
X1849Y1005D02*
X1864Y1020D01*
X1455Y1005D02*
X1849D01*
X1872Y857D02*
X1882Y867D01*
X1872Y975D02*
X1882Y965D01*
X1468Y847D02*
Y985D01*
X1862D01*
X1877Y970D01*
X1882Y867D02*
Y965D01*
X1862Y847D02*
X1877Y862D01*
X1468Y847D02*
X1862D01*
X2331Y2123D02*
X2341Y2133D01*
X2331Y2241D02*
X2341Y2231D01*
X1927Y2113D02*
Y2251D01*
X2321D01*
X2336Y2236D01*
X2341Y2133D02*
Y2231D01*
X2321Y2113D02*
X2336Y2128D01*
X1927Y2113D02*
X2321D01*
X2540Y1780D02*
X2550Y1790D01*
X2540Y1898D02*
X2550Y1888D01*
X2136Y1770D02*
Y1908D01*
X2530D01*
X2545Y1893D01*
X2550Y1790D02*
Y1888D01*
X2530Y1770D02*
X2545Y1785D01*
X2136Y1770D02*
X2530D01*
X1415Y3076D02*
X1515D01*
Y2876D02*
Y3076D01*
X1415Y2876D02*
X1515D01*
X1415D02*
Y3076D01*
X917Y2914D02*
X1217D01*
Y3014D01*
X917D02*
X1217D01*
X917Y2914D02*
Y3014D01*
D15*
X-267Y3200D02*
X329D01*
X333Y3196D01*
Y2955D02*
Y3196D01*
X-54Y622D02*
X-44Y612D01*
X-130Y611D02*
X-54D01*
Y527D02*
X-44Y537D01*
X-130Y539D02*
X-54D01*
X-44Y537D02*
Y612D01*
X-54Y527D02*
Y622D01*
X-51Y784D02*
X-13Y784D01*
X-52Y2864D02*
X-13Y2864D01*
X-53Y3123D02*
X-43Y3113D01*
X-129Y3112D02*
X-53D01*
X-228Y461D02*
X-210Y461D01*
Y481D02*
X-130D01*
X-226Y688D02*
X-210Y688D01*
Y669D02*
X-130D01*
X-229Y2962D02*
X-209D01*
Y2982D02*
X-129D01*
X-229Y3189D02*
X-209D01*
Y3170D02*
X-129D01*
X-210Y622D02*
X-54D01*
X-210Y527D02*
X-54D01*
X-268Y450D02*
X330Y451D01*
X-227Y699D02*
X330Y699D01*
X-209Y3028D02*
X-53D01*
X-229Y2952D02*
X331D01*
X-209Y3123D02*
X-53D01*
X330Y451D02*
Y699D01*
X-130Y481D02*
Y669D01*
X-53Y3028D02*
X-43Y3038D01*
X-53Y3028D02*
Y3123D01*
X-43Y3038D02*
Y3113D01*
X-129Y3040D02*
X-53D01*
X-129Y2982D02*
Y3170D01*
X-210Y461D02*
Y688D01*
X-209Y2962D02*
Y3189D01*
X-52Y2952D02*
X-51Y698D01*
X-13Y784D02*
Y2864D01*
X-227Y668D02*
Y2980D01*
X-228Y3200D02*
X-227Y450D01*
X-268D02*
X-267Y3200D01*
D16*
X2090Y981D02*
Y1020D01*
X2110D01*
X2116Y1014D01*
Y1001D01*
X2110Y994D01*
X2090D01*
X2103D02*
X2116Y981D01*
X2129Y1014D02*
X2136Y1020D01*
X2149D01*
X2156Y1014D01*
Y1007D01*
X2149Y1001D01*
X2142D01*
X2149D01*
X2156Y994D01*
Y988D01*
X2149Y981D01*
X2136D01*
X2129Y988D01*
X2169Y1020D02*
X2195D01*
Y1014D01*
X2169Y988D01*
Y981D01*
X2627Y929D02*
Y968D01*
X2647D01*
X2653Y962D01*
Y949D01*
X2647Y942D01*
X2627D01*
X2640D02*
X2653Y929D01*
X2666Y962D02*
X2673Y968D01*
X2686D01*
X2693Y962D01*
Y955D01*
X2686Y949D01*
X2679D01*
X2686D01*
X2693Y942D01*
Y936D01*
X2686Y929D01*
X2673D01*
X2666Y936D01*
X2732Y968D02*
X2706D01*
Y949D01*
X2719Y955D01*
X2725D01*
X2732Y949D01*
Y936D01*
X2725Y929D01*
X2712D01*
X2706Y936D01*
X654Y903D02*
Y942D01*
X674D01*
X680Y936D01*
Y923D01*
X674Y916D01*
X654D01*
X667D02*
X680Y903D01*
X693Y936D02*
X700Y942D01*
X713D01*
X720Y936D01*
Y929D01*
X713Y923D01*
X706D01*
X713D01*
X720Y916D01*
Y910D01*
X713Y903D01*
X700D01*
X693Y910D01*
X733Y903D02*
X746D01*
X739D01*
Y942D01*
X733Y936D01*
X400Y903D02*
Y942D01*
X420D01*
X426Y936D01*
Y923D01*
X420Y916D01*
X400D01*
X413D02*
X426Y903D01*
X439Y936D02*
X446Y942D01*
X459D01*
X466Y936D01*
Y929D01*
X459Y923D01*
X452D01*
X459D01*
X466Y916D01*
Y910D01*
X459Y903D01*
X446D01*
X439Y910D01*
X479Y936D02*
X485Y942D01*
X498D01*
X505Y936D01*
Y929D01*
X498Y923D01*
X492D01*
X498D01*
X505Y916D01*
Y910D01*
X498Y903D01*
X485D01*
X479Y910D01*
X1264Y2974D02*
X1258Y2980D01*
X1245D01*
X1238Y2974D01*
Y2948D01*
X1245Y2941D01*
X1258D01*
X1264Y2948D01*
X1277Y2980D02*
Y2941D01*
X1304D01*
X1317Y2980D02*
Y2941D01*
Y2954D01*
X1343Y2980D01*
X1323Y2961D01*
X1343Y2941D01*
X1141Y2896D02*
Y2857D01*
X1167D01*
X1207Y2864D02*
Y2890D01*
X1200Y2896D01*
X1187D01*
X1180Y2890D01*
Y2864D01*
X1187Y2857D01*
X1200D01*
X1193Y2870D02*
X1207Y2857D01*
X1200D02*
X1207Y2864D01*
X924Y2894D02*
X898D01*
Y2875D01*
X911D01*
X898D01*
Y2855D01*
X937D02*
Y2894D01*
X957D01*
X964Y2888D01*
Y2875D01*
X957Y2868D01*
X937D01*
X1003Y2888D02*
X996Y2894D01*
X983D01*
X977Y2888D01*
Y2862D01*
X983Y2855D01*
X996D01*
X1003Y2862D01*
Y2875D01*
X990D01*
X1016Y2855D02*
Y2881D01*
X1029Y2894D01*
X1042Y2881D01*
Y2855D01*
Y2875D01*
X1016D01*
X1536Y2945D02*
Y2919D01*
X1549Y2906D01*
X1562Y2919D01*
Y2945D01*
X1602Y2939D02*
X1595Y2945D01*
X1582D01*
X1575Y2939D01*
Y2913D01*
X1582Y2906D01*
X1595D01*
X1602Y2913D01*
X1641Y2939D02*
X1634Y2945D01*
X1621D01*
X1615Y2939D01*
Y2913D01*
X1621Y2906D01*
X1634D01*
X1641Y2913D01*
X1530Y3043D02*
X1556D01*
X1543D01*
Y3004D01*
X1569Y3043D02*
X1596Y3004D01*
Y3043D02*
X1569Y3004D01*
X1609Y3043D02*
Y3004D01*
X1628D01*
X1635Y3011D01*
Y3037D01*
X1628Y3043D01*
X1609D01*
X1661Y3004D02*
X1648Y3017D01*
Y3030D01*
X1661Y3043D01*
X1681Y3037D02*
X1687Y3043D01*
X1701D01*
X1707Y3037D01*
Y3011D01*
X1701Y3004D01*
X1687D01*
X1681Y3011D01*
Y3037D01*
X1720Y3024D02*
X1746D01*
X1760Y3004D02*
X1773D01*
X1766D01*
Y3043D01*
X1760Y3037D01*
X1819Y3043D02*
X1806Y3037D01*
X1792Y3024D01*
Y3011D01*
X1799Y3004D01*
X1812D01*
X1819Y3011D01*
Y3017D01*
X1812Y3024D01*
X1792D01*
X1832Y3004D02*
X1845Y3017D01*
Y3030D01*
X1832Y3043D01*
X2442Y1021D02*
Y982D01*
X2462D01*
X2468Y989D01*
Y1015D01*
X2462Y1021D01*
X2442D01*
X2508D02*
X2481D01*
Y1002D01*
X2494Y1008D01*
X2501D01*
X2508Y1002D01*
Y989D01*
X2501Y982D01*
X2488D01*
X2481Y989D01*
X1703Y3157D02*
Y3196D01*
X1729Y3157D01*
Y3196D01*
X1742D02*
X1769D01*
X1755D01*
Y3157D01*
X1782Y3196D02*
Y3157D01*
Y3170D01*
X1808Y3196D01*
X1788Y3177D01*
X1808Y3157D01*
X1841D02*
Y3196D01*
X1821Y3177D01*
X1847D01*
X1860Y3150D02*
X1887D01*
X1919Y3196D02*
X1906D01*
X1900Y3190D01*
Y3164D01*
X1906Y3157D01*
X1919D01*
X1926Y3164D01*
Y3190D01*
X1919Y3196D01*
X1939Y3157D02*
Y3196D01*
X1959D01*
X1965Y3190D01*
Y3177D01*
X1959Y3170D01*
X1939D01*
X1979Y3196D02*
X2005D01*
X1992D01*
Y3157D01*
X2038Y3196D02*
X2024D01*
X2018Y3190D01*
Y3164D01*
X2024Y3157D01*
X2038D01*
X2044Y3164D01*
Y3190D01*
X2038Y3196D01*
X2057Y3150D02*
X2083D01*
X2123Y3190D02*
X2116Y3196D01*
X2103D01*
X2097Y3190D01*
Y3183D01*
X2103Y3177D01*
X2116D01*
X2123Y3170D01*
Y3164D01*
X2116Y3157D01*
X2103D01*
X2097Y3164D01*
X2136Y3157D02*
Y3196D01*
X2156D01*
X2162Y3190D01*
Y3177D01*
X2156Y3170D01*
X2136D01*
X2175Y3196D02*
Y3157D01*
X2195D01*
X2202Y3164D01*
Y3170D01*
X2195Y3177D01*
X2175D01*
X2195D01*
X2202Y3183D01*
Y3190D01*
X2195Y3196D01*
X2175D01*
X2215Y3150D02*
X2241D01*
X2280Y3190D02*
X2274Y3196D01*
X2261D01*
X2254Y3190D01*
Y3164D01*
X2261Y3157D01*
X2274D01*
X2280Y3164D01*
X2313Y3196D02*
X2300D01*
X2293Y3190D01*
Y3164D01*
X2300Y3157D01*
X2313D01*
X2320Y3164D01*
Y3190D01*
X2313Y3196D01*
X2333Y3157D02*
Y3196D01*
X2359Y3157D01*
Y3196D01*
X2372D02*
X2398D01*
X2385D01*
Y3157D01*
X2411D02*
Y3196D01*
X2431D01*
X2438Y3190D01*
Y3177D01*
X2431Y3170D01*
X2411D01*
X2425D02*
X2438Y3157D01*
X2470Y3196D02*
X2457D01*
X2451Y3190D01*
Y3164D01*
X2457Y3157D01*
X2470D01*
X2477Y3164D01*
Y3190D01*
X2470Y3196D01*
X2490D02*
Y3157D01*
X2516D01*
X2780Y1795D02*
X2774Y1801D01*
X2761D01*
X2754Y1795D01*
Y1788D01*
X2761Y1782D01*
X2774D01*
X2780Y1775D01*
Y1769D01*
X2774Y1762D01*
X2761D01*
X2754Y1769D01*
X2793Y1762D02*
Y1801D01*
X2813D01*
X2820Y1795D01*
Y1782D01*
X2813Y1775D01*
X2793D01*
X2833Y1801D02*
Y1762D01*
X2852D01*
X2859Y1769D01*
Y1775D01*
X2852Y1782D01*
X2833D01*
X2852D01*
X2859Y1788D01*
Y1795D01*
X2852Y1801D01*
X2833D01*
X2872Y1782D02*
X2898D01*
X2911Y1769D02*
X2918Y1762D01*
X2931D01*
X2938Y1769D01*
Y1795D01*
X2931Y1801D01*
X2918D01*
X2911Y1795D01*
Y1788D01*
X2918Y1782D01*
X2938D01*
X2977Y1801D02*
X2964Y1795D01*
X2951Y1782D01*
Y1769D01*
X2957Y1762D01*
X2970D01*
X2977Y1769D01*
Y1775D01*
X2970Y1782D01*
X2951D01*
X3010Y1762D02*
Y1801D01*
X2990Y1782D01*
X3016D01*
X3030Y1795D02*
X3036Y1801D01*
X3049D01*
X3056Y1795D01*
Y1769D01*
X3049Y1762D01*
X3036D01*
X3030Y1769D01*
Y1795D01*
X3069Y1762D02*
Y1788D01*
X3082Y1801D01*
X3095Y1788D01*
Y1762D01*
Y1782D01*
X3069D01*
X3108Y1801D02*
Y1762D01*
X3134D01*
X3174Y1795D02*
X3167Y1801D01*
X3154D01*
X3148Y1795D01*
Y1769D01*
X3154Y1762D01*
X3167D01*
X3174Y1769D01*
Y1782D01*
X3161D01*
X3239Y1762D02*
X3226Y1775D01*
Y1788D01*
X3239Y1801D01*
X3285D02*
X3259D01*
Y1762D01*
X3285D01*
X3259Y1782D02*
X3272D01*
X3325Y1801D02*
X3298D01*
Y1762D01*
X3325D01*
X3298Y1782D02*
X3312D01*
X3338Y1762D02*
Y1801D01*
X3357D01*
X3364Y1795D01*
Y1782D01*
X3357Y1775D01*
X3338D01*
X3377Y1762D02*
Y1801D01*
X3397D01*
X3403Y1795D01*
Y1782D01*
X3397Y1775D01*
X3377D01*
X3390D02*
X3403Y1762D01*
X3436Y1801D02*
X3423D01*
X3417Y1795D01*
Y1769D01*
X3423Y1762D01*
X3436D01*
X3443Y1769D01*
Y1795D01*
X3436Y1801D01*
X3456Y1762D02*
Y1801D01*
X3469Y1788D01*
X3482Y1801D01*
Y1762D01*
X3495D02*
X3508Y1775D01*
Y1788D01*
X3495Y1801D01*
X2747Y3020D02*
X2741Y3026D01*
X2728D01*
X2721Y3020D01*
Y3013D01*
X2728Y3007D01*
X2741D01*
X2747Y3000D01*
Y2994D01*
X2741Y2987D01*
X2728D01*
X2721Y2994D01*
X2760Y2987D02*
Y3026D01*
X2780D01*
X2787Y3020D01*
Y3007D01*
X2780Y3000D01*
X2760D01*
X2800Y3026D02*
Y2987D01*
X2819D01*
X2826Y2994D01*
Y3000D01*
X2819Y3007D01*
X2800D01*
X2819D01*
X2826Y3013D01*
Y3020D01*
X2819Y3026D01*
X2800D01*
X2839Y3007D02*
X2865D01*
X2878Y2994D02*
X2885Y2987D01*
X2898D01*
X2905Y2994D01*
Y3020D01*
X2898Y3026D01*
X2885D01*
X2878Y3020D01*
Y3013D01*
X2885Y3007D01*
X2905D01*
X2918Y3026D02*
X2944D01*
Y3020D01*
X2918Y2994D01*
Y2987D01*
X2977D02*
Y3026D01*
X2957Y3007D01*
X2983D01*
X2997Y3020D02*
X3003Y3026D01*
X3016D01*
X3023Y3020D01*
Y2994D01*
X3016Y2987D01*
X3003D01*
X2997Y2994D01*
Y3020D01*
X3036Y2987D02*
Y3013D01*
X3049Y3026D01*
X3062Y3013D01*
Y2987D01*
Y3007D01*
X3036D01*
X3075Y3026D02*
Y2987D01*
X3101D01*
X3141Y3020D02*
X3134Y3026D01*
X3121D01*
X3115Y3020D01*
Y2994D01*
X3121Y2987D01*
X3134D01*
X3141Y2994D01*
Y3007D01*
X3128D01*
X879Y2462D02*
Y2423D01*
X899D01*
X905Y2430D01*
Y2456D01*
X899Y2462D01*
X879D01*
X918Y2423D02*
X931D01*
X925D01*
Y2462D01*
X918Y2456D01*
X1644Y89D02*
Y128D01*
X1664D01*
X1670Y122D01*
Y109D01*
X1664Y102D01*
X1644D01*
X1703Y128D02*
X1690D01*
X1683Y122D01*
Y96D01*
X1690Y89D01*
X1703D01*
X1710Y96D01*
Y122D01*
X1703Y128D01*
X1723D02*
Y89D01*
X1736Y102D01*
X1749Y89D01*
Y128D01*
X1788D02*
X1762D01*
Y89D01*
X1788D01*
X1762Y109D02*
X1775D01*
X1801Y89D02*
Y128D01*
X1821D01*
X1828Y122D01*
Y109D01*
X1821Y102D01*
X1801D01*
X1815D02*
X1828Y89D01*
X1854D02*
X1841Y102D01*
Y115D01*
X1854Y128D01*
X1893D02*
X1880D01*
X1874Y122D01*
Y96D01*
X1880Y89D01*
X1893D01*
X1900Y96D01*
Y122D01*
X1893Y128D01*
X1913D02*
Y96D01*
X1920Y89D01*
X1933D01*
X1939Y96D01*
Y128D01*
X1952D02*
X1979D01*
X1965D01*
Y89D01*
X1992D02*
X2005Y102D01*
Y115D01*
X1992Y128D01*
X2941Y1021D02*
Y982D01*
X2961D01*
X2967Y989D01*
Y1015D01*
X2961Y1021D01*
X2941D01*
X3000Y982D02*
Y1021D01*
X2980Y1002D01*
X3007D01*
X2389Y70D02*
X2383Y76D01*
X2370D01*
X2363Y70D01*
Y44D01*
X2370Y37D01*
X2383D01*
X2389Y44D01*
X2422Y37D02*
Y76D01*
X2402Y57D01*
X2429D01*
X2442Y70D02*
X2448Y76D01*
X2461D01*
X2468Y70D01*
Y44D01*
X2461Y37D01*
X2448D01*
X2442Y44D01*
Y70D01*
X2946Y71D02*
X2940Y77D01*
X2927D01*
X2920Y71D01*
Y45D01*
X2927Y38D01*
X2940D01*
X2946Y45D01*
X2959Y71D02*
X2966Y77D01*
X2979D01*
X2986Y71D01*
Y64D01*
X2979Y58D01*
X2972D01*
X2979D01*
X2986Y51D01*
Y45D01*
X2979Y38D01*
X2966D01*
X2959Y45D01*
X3025Y77D02*
X2999D01*
Y58D01*
X3012Y64D01*
X3018D01*
X3025Y58D01*
Y45D01*
X3018Y38D01*
X3005D01*
X2999Y45D01*
X1085Y79D02*
Y118D01*
X1105D01*
X1111Y112D01*
Y99D01*
X1105Y92D01*
X1085D01*
X1144Y118D02*
X1131D01*
X1124Y112D01*
Y86D01*
X1131Y79D01*
X1144D01*
X1151Y86D01*
Y112D01*
X1144Y118D01*
X1164D02*
Y79D01*
X1177Y92D01*
X1190Y79D01*
Y118D01*
X1229D02*
X1203D01*
Y79D01*
X1229D01*
X1203Y99D02*
X1216D01*
X1242Y79D02*
Y118D01*
X1262D01*
X1269Y112D01*
Y99D01*
X1262Y92D01*
X1242D01*
X1256D02*
X1269Y79D01*
X1295D02*
X1282Y92D01*
Y105D01*
X1295Y118D01*
X1315D02*
X1328D01*
X1321D01*
Y79D01*
X1315D01*
X1328D01*
X1347D02*
Y118D01*
X1374Y79D01*
Y118D01*
X1387Y79D02*
X1400Y92D01*
Y105D01*
X1387Y118D01*
X1542Y1754D02*
X1536Y1760D01*
X1523D01*
X1516Y1754D01*
Y1747D01*
X1523Y1741D01*
X1536D01*
X1542Y1734D01*
Y1728D01*
X1536Y1721D01*
X1523D01*
X1516Y1728D01*
X1555Y1760D02*
Y1721D01*
X1568Y1734D01*
X1582Y1721D01*
Y1760D01*
X1621Y1721D02*
X1595D01*
X1621Y1747D01*
Y1754D01*
X1614Y1760D01*
X1601D01*
X1595Y1754D01*
X752D02*
X746Y1760D01*
X733D01*
X726Y1754D01*
Y1747D01*
X733Y1741D01*
X746D01*
X752Y1734D01*
Y1728D01*
X746Y1721D01*
X733D01*
X726Y1728D01*
X765Y1760D02*
Y1721D01*
X778Y1734D01*
X792Y1721D01*
Y1760D01*
X805Y1721D02*
X818D01*
X811D01*
Y1760D01*
X805Y1754D01*
X1684Y2085D02*
Y2124D01*
X1703D01*
X1710Y2118D01*
Y2104D01*
X1703Y2098D01*
X1684D01*
X1697D02*
X1710Y2085D01*
X1730Y2118D02*
Y2111D01*
X1723D01*
X1736D01*
X1730D01*
Y2091D01*
X1736Y2085D01*
X1769D02*
X1756Y2098D01*
Y2111D01*
X1769Y2124D01*
X1808Y2085D02*
Y2124D01*
X1789Y2104D01*
X1815D01*
X1828Y2085D02*
X1841Y2098D01*
Y2111D01*
X1828Y2124D01*
X1684Y2151D02*
Y2191D01*
X1703D01*
X1710Y2184D01*
Y2171D01*
X1703Y2165D01*
X1684D01*
X1697D02*
X1710Y2151D01*
X1730Y2184D02*
Y2178D01*
X1723D01*
X1736D01*
X1730D01*
Y2158D01*
X1736Y2151D01*
X1769D02*
X1756Y2165D01*
Y2178D01*
X1769Y2191D01*
X1789Y2184D02*
X1795Y2191D01*
X1808D01*
X1815Y2184D01*
Y2178D01*
X1808Y2171D01*
X1802D01*
X1808D01*
X1815Y2165D01*
Y2158D01*
X1808Y2151D01*
X1795D01*
X1789Y2158D01*
X1828Y2151D02*
X1841Y2165D01*
Y2178D01*
X1828Y2191D01*
X1684Y2322D02*
Y2361D01*
X1703D01*
X1710Y2355D01*
Y2342D01*
X1703Y2335D01*
X1684D01*
X1697D02*
X1710Y2322D01*
X1730Y2355D02*
Y2348D01*
X1723D01*
X1736D01*
X1730D01*
Y2329D01*
X1736Y2322D01*
X1769D02*
X1756Y2335D01*
Y2348D01*
X1769Y2361D01*
X1815Y2322D02*
X1789D01*
X1815Y2348D01*
Y2355D01*
X1808Y2361D01*
X1795D01*
X1789Y2355D01*
X1828Y2322D02*
X1841Y2335D01*
Y2348D01*
X1828Y2361D01*
X1684Y2388D02*
Y2427D01*
X1703D01*
X1710Y2421D01*
Y2408D01*
X1703Y2401D01*
X1684D01*
X1697D02*
X1710Y2388D01*
X1730Y2421D02*
Y2414D01*
X1723D01*
X1736D01*
X1730D01*
Y2394D01*
X1736Y2388D01*
X1769D02*
X1756Y2401D01*
Y2414D01*
X1769Y2427D01*
X1789Y2388D02*
X1802D01*
X1795D01*
Y2427D01*
X1789Y2421D01*
X1821Y2388D02*
X1834Y2401D01*
Y2414D01*
X1821Y2427D01*
X1680Y2250D02*
Y2289D01*
X1700D01*
X1706Y2283D01*
Y2270D01*
X1700Y2263D01*
X1680D01*
X1693D02*
X1706Y2250D01*
X1732D02*
X1719Y2263D01*
Y2276D01*
X1732Y2289D01*
X1752Y2250D02*
Y2289D01*
X1772D01*
X1778Y2283D01*
Y2270D01*
X1772Y2263D01*
X1752D01*
X1765D02*
X1778Y2250D01*
X1818Y2289D02*
X1792D01*
Y2250D01*
X1818D01*
X1792Y2270D02*
X1805D01*
X1857Y2289D02*
X1831D01*
Y2270D01*
X1844D01*
X1831D01*
Y2250D01*
X1870D02*
X1883Y2263D01*
Y2276D01*
X1870Y2289D01*
X1684Y2013D02*
Y2052D01*
X1703D01*
X1710Y2046D01*
Y2033D01*
X1703Y2026D01*
X1684D01*
X1697D02*
X1710Y2013D01*
X1749D02*
X1723D01*
X1749Y2039D01*
Y2046D01*
X1743Y2052D01*
X1730D01*
X1723Y2046D01*
X1762Y2020D02*
X1769Y2013D01*
X1782D01*
X1789Y2020D01*
Y2046D01*
X1782Y2052D01*
X1769D01*
X1762Y2046D01*
Y2039D01*
X1769Y2033D01*
X1789D01*
X1760Y1944D02*
Y1983D01*
X1779D01*
X1786Y1977D01*
Y1964D01*
X1779Y1957D01*
X1760D01*
X1773D02*
X1786Y1944D01*
X1825D02*
X1799D01*
X1825Y1970D01*
Y1977D01*
X1819Y1983D01*
X1806D01*
X1799Y1977D01*
X1838D02*
X1845Y1983D01*
X1858D01*
X1865Y1977D01*
Y1970D01*
X1858Y1964D01*
X1865Y1957D01*
Y1951D01*
X1858Y1944D01*
X1845D01*
X1838Y1951D01*
Y1957D01*
X1845Y1964D01*
X1838Y1970D01*
Y1977D01*
X1845Y1964D02*
X1858D01*
X1969Y2848D02*
X1930D01*
Y2868D01*
X1936Y2874D01*
X1949D01*
X1956Y2868D01*
Y2848D01*
Y2861D02*
X1969Y2874D01*
Y2914D02*
Y2887D01*
X1943Y2914D01*
X1936D01*
X1930Y2907D01*
Y2894D01*
X1936Y2887D01*
X1930Y2927D02*
Y2953D01*
X1936D01*
X1962Y2927D01*
X1969D01*
X2846Y2010D02*
X2807D01*
Y2030D01*
X2813Y2036D01*
X2826D01*
X2833Y2030D01*
Y2010D01*
Y2023D02*
X2846Y2036D01*
X2807Y2049D02*
Y2076D01*
X2813D01*
X2839Y2049D01*
X2846D01*
X2781Y2010D02*
X2742D01*
Y2030D01*
X2748Y2036D01*
X2761D01*
X2768Y2030D01*
Y2010D01*
Y2023D02*
X2781Y2036D01*
X2742Y2076D02*
X2748Y2062D01*
X2761Y2049D01*
X2774D01*
X2781Y2056D01*
Y2069D01*
X2774Y2076D01*
X2768D01*
X2761Y2069D01*
Y2049D01*
X2718Y2010D02*
X2679D01*
Y2030D01*
X2685Y2036D01*
X2698D01*
X2705Y2030D01*
Y2010D01*
Y2023D02*
X2718Y2036D01*
X2679Y2076D02*
Y2049D01*
X2698D01*
X2692Y2062D01*
Y2069D01*
X2698Y2076D01*
X2711D01*
X2718Y2069D01*
Y2056D01*
X2711Y2049D01*
X2657Y2010D02*
X2618D01*
Y2030D01*
X2624Y2036D01*
X2637D01*
X2644Y2030D01*
Y2010D01*
Y2023D02*
X2657Y2036D01*
Y2069D02*
X2618D01*
X2637Y2049D01*
Y2076D01*
X2593Y2010D02*
X2554D01*
Y2030D01*
X2560Y2036D01*
X2573D01*
X2580Y2030D01*
Y2010D01*
Y2023D02*
X2593Y2036D01*
X2560Y2049D02*
X2554Y2056D01*
Y2069D01*
X2560Y2076D01*
X2567D01*
X2573Y2069D01*
Y2062D01*
Y2069D01*
X2580Y2076D01*
X2586D01*
X2593Y2069D01*
Y2056D01*
X2586Y2049D01*
X892Y2930D02*
X853D01*
Y2950D01*
X859Y2956D01*
X872D01*
X879Y2950D01*
Y2930D01*
X892Y2996D02*
Y2969D01*
X866Y2996D01*
X859D01*
X853Y2989D01*
Y2976D01*
X859Y2969D01*
X1439Y3106D02*
Y3145D01*
X1459D01*
X1465Y3139D01*
Y3126D01*
X1459Y3119D01*
X1439D01*
X1478Y3106D02*
X1491D01*
X1485D01*
Y3145D01*
X1478Y3139D01*
X843Y3090D02*
X882D01*
Y3116D01*
X875Y3155D02*
X849D01*
X843Y3149D01*
Y3136D01*
X849Y3129D01*
X875D01*
X882Y3136D01*
Y3149D01*
X869Y3142D02*
X882Y3155D01*
Y3149D02*
X875Y3155D01*
X882Y3168D02*
Y3181D01*
Y3175D01*
X843D01*
X849Y3168D01*
X1917Y1133D02*
X1956D01*
Y1159D01*
Y1192D02*
X1917D01*
X1936Y1172D01*
Y1199D01*
X2107Y2088D02*
Y2049D01*
X2134D01*
X2173D02*
X2147D01*
X2173Y2075D01*
Y2082D01*
X2166Y2088D01*
X2153D01*
X2147Y2082D01*
X1168Y834D02*
Y795D01*
X1188D01*
X1194Y802D01*
Y828D01*
X1188Y834D01*
X1168D01*
X1207Y828D02*
X1214Y834D01*
X1227D01*
X1234Y828D01*
Y821D01*
X1227Y815D01*
X1220D01*
X1227D01*
X1234Y808D01*
Y802D01*
X1227Y795D01*
X1214D01*
X1207Y802D01*
X637Y1289D02*
Y1250D01*
X657D01*
X663Y1257D01*
Y1283D01*
X657Y1289D01*
X637D01*
X703Y1250D02*
X676D01*
X703Y1276D01*
Y1283D01*
X696Y1289D01*
X683D01*
X676Y1283D01*
X1928Y557D02*
X1922Y550D01*
Y537D01*
X1928Y530D01*
X1954D01*
X1961Y537D01*
Y550D01*
X1954Y557D01*
X1928Y570D02*
X1922Y576D01*
Y589D01*
X1928Y596D01*
X1935D01*
X1941Y589D01*
Y583D01*
Y589D01*
X1948Y596D01*
X1954D01*
X1961Y589D01*
Y576D01*
X1954Y570D01*
X1961Y635D02*
Y609D01*
X1935Y635D01*
X1928D01*
X1922Y629D01*
Y616D01*
X1928Y609D01*
X1404Y750D02*
X1398Y744D01*
Y731D01*
X1404Y724D01*
X1430D01*
X1437Y731D01*
Y744D01*
X1430Y750D01*
X1404Y763D02*
X1398Y770D01*
Y783D01*
X1404Y790D01*
X1411D01*
X1417Y783D01*
Y776D01*
Y783D01*
X1424Y790D01*
X1430D01*
X1437Y783D01*
Y770D01*
X1430Y763D01*
X1437Y803D02*
Y816D01*
Y809D01*
X1398D01*
X1404Y803D01*
Y567D02*
X1398Y561D01*
Y548D01*
X1404Y541D01*
X1430D01*
X1437Y548D01*
Y561D01*
X1430Y567D01*
X1404Y580D02*
X1398Y587D01*
Y600D01*
X1404Y607D01*
X1411D01*
X1417Y600D01*
Y593D01*
Y600D01*
X1424Y607D01*
X1430D01*
X1437Y600D01*
Y587D01*
X1430Y580D01*
X1404Y620D02*
X1398Y626D01*
Y639D01*
X1404Y646D01*
X1430D01*
X1437Y639D01*
Y626D01*
X1430Y620D01*
X1404D01*
X958Y1280D02*
X952Y1286D01*
X939D01*
X932Y1280D01*
Y1254D01*
X939Y1247D01*
X952D01*
X958Y1254D01*
X998Y1247D02*
X971D01*
X998Y1273D01*
Y1280D01*
X991Y1286D01*
X978D01*
X971Y1280D01*
X1037Y1286D02*
X1011D01*
Y1267D01*
X1024Y1273D01*
X1030D01*
X1037Y1267D01*
Y1254D01*
X1030Y1247D01*
X1017D01*
X1011Y1254D01*
X1816Y2857D02*
X1810Y2863D01*
X1797D01*
X1790Y2857D01*
Y2831D01*
X1797Y2824D01*
X1810D01*
X1816Y2831D01*
X1829Y2824D02*
X1842D01*
X1836D01*
Y2863D01*
X1829Y2857D01*
X1888Y2863D02*
X1875Y2857D01*
X1862Y2844D01*
Y2831D01*
X1869Y2824D01*
X1882D01*
X1888Y2831D01*
Y2837D01*
X1882Y2844D01*
X1862D01*
X1404Y1055D02*
X1398Y1049D01*
Y1036D01*
X1404Y1029D01*
X1430D01*
X1437Y1036D01*
Y1049D01*
X1430Y1055D01*
X1437Y1068D02*
Y1081D01*
Y1075D01*
X1398D01*
X1404Y1068D01*
X1398Y1127D02*
Y1101D01*
X1417D01*
X1411Y1114D01*
Y1121D01*
X1417Y1127D01*
X1430D01*
X1437Y1121D01*
Y1108D01*
X1430Y1101D01*
X1807Y2679D02*
X1801Y2685D01*
X1788D01*
X1781Y2679D01*
Y2653D01*
X1788Y2646D01*
X1801D01*
X1807Y2653D01*
X1820Y2646D02*
X1833D01*
X1827D01*
Y2685D01*
X1820Y2679D01*
X1853D02*
X1860Y2685D01*
X1873D01*
X1879Y2679D01*
Y2672D01*
X1873Y2666D01*
X1866D01*
X1873D01*
X1879Y2659D01*
Y2653D01*
X1873Y2646D01*
X1860D01*
X1853Y2653D01*
X1747Y2537D02*
X1741Y2543D01*
X1728D01*
X1721Y2537D01*
Y2511D01*
X1728Y2504D01*
X1741D01*
X1747Y2511D01*
X1760Y2504D02*
X1773D01*
X1767D01*
Y2543D01*
X1760Y2537D01*
X1819Y2504D02*
X1793D01*
X1819Y2530D01*
Y2537D01*
X1813Y2543D01*
X1800D01*
X1793Y2537D01*
X1404Y907D02*
X1398Y901D01*
Y888D01*
X1404Y881D01*
X1430D01*
X1437Y888D01*
Y901D01*
X1430Y907D01*
X1437Y920D02*
Y933D01*
Y927D01*
X1398D01*
X1404Y920D01*
X1437Y953D02*
Y966D01*
Y960D01*
X1398D01*
X1404Y953D01*
X1958Y867D02*
X1952Y873D01*
X1939D01*
X1932Y867D01*
Y841D01*
X1939Y834D01*
X1952D01*
X1958Y841D01*
X1971Y834D02*
X1984D01*
X1978D01*
Y873D01*
X1971Y867D01*
X2004D02*
X2011Y873D01*
X2024D01*
X2030Y867D01*
Y841D01*
X2024Y834D01*
X2011D01*
X2004Y841D01*
Y867D01*
X1778Y2601D02*
X1772Y2607D01*
X1759D01*
X1752Y2601D01*
Y2575D01*
X1759Y2568D01*
X1772D01*
X1778Y2575D01*
X1791Y2607D02*
X1818D01*
Y2601D01*
X1791Y2575D01*
Y2568D01*
X2368Y2177D02*
X2362Y2171D01*
Y2158D01*
X2368Y2151D01*
X2394D01*
X2401Y2158D01*
Y2171D01*
X2394Y2177D01*
X2362Y2217D02*
X2368Y2203D01*
X2381Y2190D01*
X2394D01*
X2401Y2197D01*
Y2210D01*
X2394Y2217D01*
X2388D01*
X2381Y2210D01*
Y2190D01*
X1929Y2304D02*
X1923Y2310D01*
X1910D01*
X1903Y2304D01*
Y2278D01*
X1910Y2271D01*
X1923D01*
X1929Y2278D01*
X1969Y2310D02*
X1942D01*
Y2291D01*
X1955Y2297D01*
X1962D01*
X1969Y2291D01*
Y2278D01*
X1962Y2271D01*
X1949D01*
X1942Y2278D01*
X2080Y1839D02*
X2074Y1833D01*
Y1820D01*
X2080Y1813D01*
X2106D01*
X2113Y1820D01*
Y1833D01*
X2106Y1839D01*
X2113Y1872D02*
X2074D01*
X2093Y1852D01*
Y1879D01*
X2283Y1967D02*
X2276Y1973D01*
X2263D01*
X2257Y1967D01*
Y1941D01*
X2263Y1934D01*
X2276D01*
X2283Y1941D01*
X2296Y1967D02*
X2303Y1973D01*
X2316D01*
X2322Y1967D01*
Y1960D01*
X2316Y1954D01*
X2309D01*
X2316D01*
X2322Y1947D01*
Y1941D01*
X2316Y1934D01*
X2303D01*
X2296Y1941D01*
M02*
