G04*
G04 #@! TF.GenerationSoftware,Altium Limited,Altium Designer,19.1.6 (110)*
G04*
G04 Layer_Color=32896*
%FSLAX23Y23*%
%MOIN*%
G70*
G01*
G75*
%ADD14C,0.008*%
%ADD16C,0.006*%
D14*
X2465Y942D02*
X2475Y952D01*
X2573D02*
X2583Y942D01*
X2455Y538D02*
X2593D01*
Y932D01*
X2578Y947D02*
X2593Y932D01*
X2475Y952D02*
X2573D01*
X2455Y932D02*
X2470Y947D01*
X2455Y538D02*
Y932D01*
X2478Y497D02*
X2488Y507D01*
X2586D02*
X2596Y497D01*
X2468Y93D02*
X2606D01*
Y487D01*
X2591Y502D02*
X2606Y487D01*
X2488Y507D02*
X2586D01*
X2468Y487D02*
X2483Y502D01*
X2468Y93D02*
Y487D01*
X905Y648D02*
X1299D01*
X890Y663D02*
X905Y648D01*
X885Y668D02*
Y766D01*
X890Y771D02*
X905Y786D01*
X1299D01*
Y648D02*
Y786D01*
X885Y766D02*
X895Y776D01*
X885Y668D02*
X895Y658D01*
X467Y1109D02*
X861D01*
X452Y1124D02*
X467Y1109D01*
X447Y1129D02*
Y1227D01*
X452Y1232D02*
X467Y1247D01*
X861D01*
Y1109D02*
Y1247D01*
X447Y1227D02*
X457Y1237D01*
X447Y1129D02*
X457Y1119D01*
X2904Y505D02*
X2914Y515D01*
X3012D02*
X3022Y505D01*
X2894Y101D02*
X3032D01*
Y495D01*
X3017Y510D02*
X3032Y495D01*
X2914Y515D02*
X3012D01*
X2894Y495D02*
X2909Y510D01*
X2894Y101D02*
Y495D01*
X2999Y971D02*
X3009Y981D01*
X3107D02*
X3117Y971D01*
X2989Y567D02*
X3127D01*
Y961D01*
X3112Y976D02*
X3127Y961D01*
X3009Y981D02*
X3107D01*
X2989Y961D02*
X3004Y976D01*
X2989Y567D02*
Y961D01*
X2332Y2241D02*
X2342Y2231D01*
X2332Y2123D02*
X2342Y2133D01*
X1928Y2113D02*
Y2251D01*
Y2113D02*
X2322D01*
X2337Y2128D01*
X2342Y2133D02*
Y2231D01*
X2322Y2251D02*
X2337Y2236D01*
X1928Y2251D02*
X2322D01*
X1856Y1132D02*
X1866Y1122D01*
X1856Y1014D02*
X1866Y1024D01*
X1452Y1004D02*
Y1142D01*
Y1004D02*
X1846D01*
X1861Y1019D01*
X1866Y1024D02*
Y1122D01*
X1846Y1142D02*
X1861Y1127D01*
X1452Y1142D02*
X1846D01*
X928Y1209D02*
X938Y1219D01*
X1036D02*
X1046Y1209D01*
X918Y805D02*
X1056D01*
Y1199D01*
X1041Y1214D02*
X1056Y1199D01*
X938Y1219D02*
X1036D01*
X918Y1199D02*
X933Y1214D01*
X918Y805D02*
Y1199D01*
D16*
X2375Y662D02*
X2414D01*
Y682D01*
X2408Y688D01*
X2395D01*
X2388Y682D01*
Y662D01*
Y675D02*
X2375Y688D01*
X2408Y701D02*
X2414Y708D01*
Y721D01*
X2408Y728D01*
X2401D01*
X2395Y721D01*
Y714D01*
Y721D01*
X2388Y728D01*
X2382D01*
X2375Y721D01*
Y708D01*
X2382Y701D01*
X2414Y767D02*
X2408Y754D01*
X2395Y741D01*
X2382D01*
X2375Y747D01*
Y760D01*
X2382Y767D01*
X2388D01*
X2395Y760D01*
Y741D01*
X2880Y680D02*
X2919D01*
Y700D01*
X2913Y706D01*
X2900D01*
X2893Y700D01*
Y680D01*
Y693D02*
X2880Y706D01*
X2913Y719D02*
X2919Y726D01*
Y739D01*
X2913Y746D01*
X2906D01*
X2900Y739D01*
Y732D01*
Y739D01*
X2893Y746D01*
X2887D01*
X2880Y739D01*
Y726D01*
X2887Y719D01*
X2880Y778D02*
X2919D01*
X2900Y759D01*
Y785D01*
X2267Y568D02*
X2273Y562D01*
Y549D01*
X2267Y542D01*
X2241D01*
X2234Y549D01*
Y562D01*
X2241Y568D01*
X2234Y601D02*
X2273D01*
X2254Y581D01*
Y608D01*
X2267Y621D02*
X2273Y627D01*
Y640D01*
X2267Y647D01*
X2260D01*
X2254Y640D01*
Y634D01*
Y640D01*
X2247Y647D01*
X2241D01*
X2234Y640D01*
Y627D01*
X2241Y621D01*
X2141Y196D02*
X2147Y202D01*
X2160D01*
X2167Y196D01*
Y170D01*
X2160Y163D01*
X2147D01*
X2141Y170D01*
X2108Y163D02*
Y202D01*
X2128Y183D01*
X2101D01*
X2062Y163D02*
X2088D01*
X2062Y189D01*
Y196D01*
X2069Y202D01*
X2082D01*
X2088Y196D01*
X2549Y65D02*
X2555Y71D01*
X2568D01*
X2575Y65D01*
Y39D01*
X2568Y32D01*
X2555D01*
X2549Y39D01*
X2516Y32D02*
Y71D01*
X2536Y52D01*
X2509D01*
X2496Y32D02*
X2483D01*
X2490D01*
Y71D01*
X2496Y65D01*
X2551Y1004D02*
X2557Y1010D01*
X2570D01*
X2577Y1004D01*
Y978D01*
X2570Y971D01*
X2557D01*
X2551Y978D01*
X2538Y1004D02*
X2531Y1010D01*
X2518D01*
X2511Y1004D01*
Y997D01*
X2518Y991D01*
X2525D01*
X2518D01*
X2511Y984D01*
Y978D01*
X2518Y971D01*
X2531D01*
X2538Y978D01*
X2498D02*
X2492Y971D01*
X2479D01*
X2472Y978D01*
Y1004D01*
X2479Y1010D01*
X2492D01*
X2498Y1004D01*
Y997D01*
X2492Y991D01*
X2472D01*
X2792Y548D02*
X2798Y542D01*
Y529D01*
X2792Y522D01*
X2766D01*
X2759Y529D01*
Y542D01*
X2766Y548D01*
X2792Y561D02*
X2798Y568D01*
Y581D01*
X2792Y588D01*
X2785D01*
X2779Y581D01*
Y574D01*
Y581D01*
X2772Y588D01*
X2766D01*
X2759Y581D01*
Y568D01*
X2766Y561D01*
X2792Y601D02*
X2798Y607D01*
Y620D01*
X2792Y627D01*
X2785D01*
X2779Y620D01*
X2772Y627D01*
X2766D01*
X2759Y620D01*
Y607D01*
X2766Y601D01*
X2772D01*
X2779Y607D01*
X2785Y601D01*
X2792D01*
X2779Y607D02*
Y620D01*
X2821Y130D02*
X2827Y136D01*
X2840D01*
X2847Y130D01*
Y104D01*
X2840Y97D01*
X2827D01*
X2821Y104D01*
X2808Y130D02*
X2801Y136D01*
X2788D01*
X2781Y130D01*
Y123D01*
X2788Y117D01*
X2795D01*
X2788D01*
X2781Y110D01*
Y104D01*
X2788Y97D01*
X2801D01*
X2808Y104D01*
X2768Y136D02*
X2742D01*
Y130D01*
X2768Y104D01*
Y97D01*
X2988Y77D02*
X2994Y83D01*
X3007D01*
X3014Y77D01*
Y51D01*
X3007Y44D01*
X2994D01*
X2988Y51D01*
X2975Y77D02*
X2968Y83D01*
X2955D01*
X2948Y77D01*
Y70D01*
X2955Y64D01*
X2962D01*
X2955D01*
X2948Y57D01*
Y51D01*
X2955Y44D01*
X2968D01*
X2975Y51D01*
X2909Y83D02*
X2922Y77D01*
X2935Y64D01*
Y51D01*
X2929Y44D01*
X2916D01*
X2909Y51D01*
Y57D01*
X2916Y64D01*
X2935D01*
X3084Y1033D02*
X3090Y1039D01*
X3103D01*
X3110Y1033D01*
Y1007D01*
X3103Y1000D01*
X3090D01*
X3084Y1007D01*
X3071Y1033D02*
X3064Y1039D01*
X3051D01*
X3044Y1033D01*
Y1026D01*
X3051Y1020D01*
X3058D01*
X3051D01*
X3044Y1013D01*
Y1007D01*
X3051Y1000D01*
X3064D01*
X3071Y1007D01*
X3012Y1000D02*
Y1039D01*
X3031Y1020D01*
X3005D01*
X1027Y529D02*
Y568D01*
X1007D01*
X1001Y562D01*
Y549D01*
X1007Y542D01*
X1027D01*
X1014D02*
X1001Y529D01*
X988Y562D02*
X981Y568D01*
X968D01*
X961Y562D01*
Y555D01*
X968Y549D01*
X975D01*
X968D01*
X961Y542D01*
Y536D01*
X968Y529D01*
X981D01*
X988Y536D01*
X922Y529D02*
X948D01*
X922Y555D01*
Y562D01*
X929Y568D01*
X942D01*
X948Y562D01*
X589Y988D02*
Y1027D01*
X569D01*
X563Y1021D01*
Y1008D01*
X569Y1001D01*
X589D01*
X576D02*
X563Y988D01*
X550Y1021D02*
X543Y1027D01*
X530D01*
X523Y1021D01*
Y1014D01*
X530Y1008D01*
X537D01*
X530D01*
X523Y1001D01*
Y995D01*
X530Y988D01*
X543D01*
X550Y995D01*
X510Y1021D02*
X504Y1027D01*
X491D01*
X484Y1021D01*
Y995D01*
X491Y988D01*
X504D01*
X510Y995D01*
Y1021D01*
X3095Y1515D02*
Y1554D01*
X3075D01*
X3069Y1548D01*
Y1535D01*
X3075Y1528D01*
X3095D01*
X3082D02*
X3069Y1515D01*
X3029D02*
X3056D01*
X3029Y1541D01*
Y1548D01*
X3036Y1554D01*
X3049D01*
X3056Y1548D01*
X2990Y1554D02*
X3016D01*
Y1535D01*
X3003Y1541D01*
X2997D01*
X2990Y1535D01*
Y1522D01*
X2997Y1515D01*
X3010D01*
X3016Y1522D01*
X3096Y1448D02*
Y1488D01*
X3076D01*
X3070Y1481D01*
Y1468D01*
X3076Y1461D01*
X3096D01*
X3083D02*
X3070Y1448D01*
X3030D02*
X3057D01*
X3030Y1474D01*
Y1481D01*
X3037Y1488D01*
X3050D01*
X3057Y1481D01*
X2998Y1448D02*
Y1488D01*
X3017Y1468D01*
X2991D01*
X3097Y1382D02*
Y1421D01*
X3077D01*
X3071Y1415D01*
Y1401D01*
X3077Y1395D01*
X3097D01*
X3084D02*
X3071Y1382D01*
X3031D02*
X3058D01*
X3031Y1408D01*
Y1415D01*
X3038Y1421D01*
X3051D01*
X3058Y1415D01*
X3018D02*
X3012Y1421D01*
X2999D01*
X2992Y1415D01*
Y1408D01*
X2999Y1401D01*
X3005D01*
X2999D01*
X2992Y1395D01*
Y1388D01*
X2999Y1382D01*
X3012D01*
X3018Y1388D01*
X3095Y1317D02*
Y1357D01*
X3075D01*
X3069Y1350D01*
Y1337D01*
X3075Y1331D01*
X3095D01*
X3082D02*
X3069Y1317D01*
X3029D02*
X3056D01*
X3029Y1344D01*
Y1350D01*
X3036Y1357D01*
X3049D01*
X3056Y1350D01*
X2990Y1317D02*
X3016D01*
X2990Y1344D01*
Y1350D01*
X2997Y1357D01*
X3010D01*
X3016Y1350D01*
X3093Y1251D02*
Y1290D01*
X3073D01*
X3067Y1284D01*
Y1271D01*
X3073Y1264D01*
X3093D01*
X3080D02*
X3067Y1251D01*
X3027D02*
X3054D01*
X3027Y1277D01*
Y1284D01*
X3034Y1290D01*
X3047D01*
X3054Y1284D01*
X3014Y1251D02*
X3001D01*
X3008D01*
Y1290D01*
X3014Y1284D01*
X1931Y954D02*
Y915D01*
X1905D01*
X1892Y948D02*
X1885Y954D01*
X1872D01*
X1865Y948D01*
Y941D01*
X1872Y935D01*
X1879D01*
X1872D01*
X1865Y928D01*
Y922D01*
X1872Y915D01*
X1885D01*
X1892Y922D01*
X2156Y2090D02*
Y2051D01*
X2130D01*
X2117D02*
X2104D01*
X2110D01*
Y2090D01*
X2117Y2084D01*
X823Y506D02*
X829Y499D01*
Y486D01*
X823Y480D01*
X797D01*
X790Y486D01*
Y499D01*
X797Y506D01*
X823Y519D02*
X829Y526D01*
Y539D01*
X823Y545D01*
X816D01*
X810Y539D01*
Y532D01*
Y539D01*
X803Y545D01*
X797D01*
X790Y539D01*
Y526D01*
X797Y519D01*
X823Y558D02*
X829Y565D01*
Y578D01*
X823Y585D01*
X816D01*
X810Y578D01*
Y571D01*
Y578D01*
X803Y585D01*
X797D01*
X790Y578D01*
Y565D01*
X797Y558D01*
X1353Y695D02*
X1360Y689D01*
Y676D01*
X1353Y669D01*
X1327D01*
X1320Y676D01*
Y689D01*
X1327Y695D01*
X1320Y735D02*
Y708D01*
X1347Y735D01*
X1353D01*
X1360Y728D01*
Y715D01*
X1353Y708D01*
X1327Y748D02*
X1320Y754D01*
Y767D01*
X1327Y774D01*
X1353D01*
X1360Y767D01*
Y754D01*
X1353Y748D01*
X1347D01*
X1340Y754D01*
Y774D01*
X571Y513D02*
X577Y506D01*
Y493D01*
X571Y487D01*
X545D01*
X538Y493D01*
Y506D01*
X545Y513D01*
X538Y552D02*
Y526D01*
X564Y552D01*
X571D01*
X577Y546D01*
Y533D01*
X571Y526D01*
Y565D02*
X577Y572D01*
Y585D01*
X571Y592D01*
X564D01*
X558Y585D01*
X551Y592D01*
X545D01*
X538Y585D01*
Y572D01*
X545Y565D01*
X551D01*
X558Y572D01*
X564Y565D01*
X571D01*
X558Y572D02*
Y585D01*
X1152Y962D02*
X1159Y955D01*
Y942D01*
X1152Y935D01*
X1126D01*
X1119Y942D01*
Y955D01*
X1126Y962D01*
X1119Y1001D02*
Y975D01*
X1146Y1001D01*
X1152D01*
X1159Y994D01*
Y981D01*
X1152Y975D01*
X1159Y1014D02*
Y1040D01*
X1152D01*
X1126Y1014D01*
X1119D01*
X1010Y1267D02*
X1016Y1273D01*
X1029D01*
X1036Y1267D01*
Y1241D01*
X1029Y1234D01*
X1016D01*
X1010Y1241D01*
X970Y1234D02*
X997D01*
X970Y1260D01*
Y1267D01*
X977Y1273D01*
X990D01*
X997Y1267D01*
X931Y1273D02*
X944Y1267D01*
X957Y1254D01*
Y1241D01*
X951Y1234D01*
X938D01*
X931Y1241D01*
Y1247D01*
X938Y1254D01*
X957D01*
X421Y1151D02*
X427Y1145D01*
Y1132D01*
X421Y1125D01*
X395D01*
X388Y1132D01*
Y1145D01*
X395Y1151D01*
X388Y1191D02*
Y1164D01*
X414Y1191D01*
X421D01*
X427Y1184D01*
Y1171D01*
X421Y1164D01*
X388Y1223D02*
X427D01*
X408Y1204D01*
Y1230D01*
X1110Y1900D02*
X1116Y1906D01*
X1129D01*
X1136Y1900D01*
Y1874D01*
X1129Y1867D01*
X1116D01*
X1110Y1874D01*
X1070Y1867D02*
X1097D01*
X1070Y1893D01*
Y1900D01*
X1077Y1906D01*
X1090D01*
X1097Y1900D01*
X1057D02*
X1051Y1906D01*
X1038D01*
X1031Y1900D01*
Y1893D01*
X1038Y1887D01*
X1044D01*
X1038D01*
X1031Y1880D01*
Y1874D01*
X1038Y1867D01*
X1051D01*
X1057Y1874D01*
X631Y2153D02*
X638Y2159D01*
X651D01*
X657Y2153D01*
Y2127D01*
X651Y2120D01*
X638D01*
X631Y2127D01*
X592Y2120D02*
X618D01*
X592Y2146D01*
Y2153D01*
X598Y2159D01*
X611D01*
X618Y2153D01*
X552Y2120D02*
X579D01*
X552Y2146D01*
Y2153D01*
X559Y2159D01*
X572D01*
X579Y2153D01*
X632Y2252D02*
X638Y2258D01*
X651D01*
X658Y2252D01*
Y2226D01*
X651Y2219D01*
X638D01*
X632Y2226D01*
X592Y2219D02*
X619D01*
X592Y2245D01*
Y2252D01*
X599Y2258D01*
X612D01*
X619Y2252D01*
X579Y2219D02*
X566D01*
X573D01*
Y2258D01*
X579Y2252D01*
X1703Y2238D02*
X1709Y2244D01*
X1722D01*
X1729Y2238D01*
Y2212D01*
X1722Y2205D01*
X1709D01*
X1703Y2212D01*
X1663Y2205D02*
X1690D01*
X1663Y2231D01*
Y2238D01*
X1670Y2244D01*
X1683D01*
X1690Y2238D01*
X1650D02*
X1644Y2244D01*
X1631D01*
X1624Y2238D01*
Y2212D01*
X1631Y2205D01*
X1644D01*
X1650Y2212D01*
Y2238D01*
X1694Y2174D02*
X1700Y2180D01*
X1713D01*
X1720Y2174D01*
Y2148D01*
X1713Y2141D01*
X1700D01*
X1694Y2148D01*
X1681Y2141D02*
X1668D01*
X1674D01*
Y2180D01*
X1681Y2174D01*
X1648Y2148D02*
X1641Y2141D01*
X1628D01*
X1622Y2148D01*
Y2174D01*
X1628Y2180D01*
X1641D01*
X1648Y2174D01*
Y2167D01*
X1641Y2161D01*
X1622D01*
X1091Y2673D02*
X1097Y2667D01*
Y2654D01*
X1091Y2647D01*
X1065D01*
X1058Y2654D01*
Y2667D01*
X1065Y2673D01*
X1058Y2686D02*
Y2699D01*
Y2693D01*
X1097D01*
X1091Y2686D01*
Y2719D02*
X1097Y2726D01*
Y2739D01*
X1091Y2745D01*
X1084D01*
X1078Y2739D01*
X1071Y2745D01*
X1065D01*
X1058Y2739D01*
Y2726D01*
X1065Y2719D01*
X1071D01*
X1078Y2726D01*
X1084Y2719D01*
X1091D01*
X1078Y2726D02*
Y2739D01*
X1370Y2710D02*
X1376Y2704D01*
Y2691D01*
X1370Y2684D01*
X1344D01*
X1337Y2691D01*
Y2704D01*
X1344Y2710D01*
X1337Y2723D02*
Y2736D01*
Y2730D01*
X1376D01*
X1370Y2723D01*
X1376Y2756D02*
Y2782D01*
X1370D01*
X1344Y2756D01*
X1337D01*
X1876Y1279D02*
X1882Y1285D01*
X1895D01*
X1902Y1279D01*
Y1253D01*
X1895Y1246D01*
X1882D01*
X1876Y1253D01*
X1863Y1246D02*
X1850D01*
X1856D01*
Y1285D01*
X1863Y1279D01*
X1810Y1246D02*
Y1285D01*
X1830Y1266D01*
X1804D01*
X1919Y1068D02*
X1925Y1062D01*
Y1049D01*
X1919Y1042D01*
X1893D01*
X1886Y1049D01*
Y1062D01*
X1893Y1068D01*
Y1081D02*
X1886Y1088D01*
Y1101D01*
X1893Y1108D01*
X1919D01*
X1925Y1101D01*
Y1088D01*
X1919Y1081D01*
X1912D01*
X1906Y1088D01*
Y1108D01*
X1582Y1215D02*
X1588Y1221D01*
X1601D01*
X1608Y1215D01*
Y1189D01*
X1601Y1182D01*
X1588D01*
X1582Y1189D01*
X1569Y1215D02*
X1562Y1221D01*
X1549D01*
X1542Y1215D01*
Y1208D01*
X1549Y1202D01*
X1542Y1195D01*
Y1189D01*
X1549Y1182D01*
X1562D01*
X1569Y1189D01*
Y1195D01*
X1562Y1202D01*
X1569Y1208D01*
Y1215D01*
X1562Y1202D02*
X1549D01*
X1907Y2171D02*
X1913Y2165D01*
Y2152D01*
X1907Y2145D01*
X1881D01*
X1874Y2152D01*
Y2165D01*
X1881Y2171D01*
X1874Y2211D02*
Y2184D01*
X1900Y2211D01*
X1907D01*
X1913Y2204D01*
Y2191D01*
X1907Y2184D01*
X2091Y2309D02*
X2097Y2315D01*
X2110D01*
X2117Y2309D01*
Y2283D01*
X2110Y2276D01*
X2097D01*
X2091Y2283D01*
X2078Y2276D02*
X2065D01*
X2071D01*
Y2315D01*
X2078Y2309D01*
M02*
